<?xml version="1.0" encoding="UTF-8" standalone="no"?>
<!DOCTYPE svg PUBLIC "-//W3C//DTD SVG 1.1//EN"
 "http://www.w3.org/Graphics/SVG/1.1/DTD/svg11.dtd">
<!-- Generated by graphviz version 2.40.1 (20161225.0304)
 -->
<!-- Title: ToDoLists Pages: 1 -->
<svg width="813pt" height="1049pt"
 viewBox="0.00 0.00 813.00 1049.00" xmlns="http://www.w3.org/2000/svg" xmlns:xlink="http://www.w3.org/1999/xlink">
<g id="graph0" class="graph" transform="scale(1 1) rotate(0) translate(4 1045)">
<title>ToDoLists</title>
<polygon fill="#ffffff" stroke="transparent" points="-4,4 -4,-1045 809,-1045 809,4 -4,4"/>
<!-- ToDoLists -->
<g id="node1" class="node">
<title>ToDoLists</title>
<polygon fill="#efefef" stroke="transparent" points="241,-562.5 241,-597.5 463,-597.5 463,-562.5 241,-562.5"/>
<polygon fill="none" stroke="#000000" points="241,-562.5 241,-597.5 463,-597.5 463,-562.5 241,-562.5"/>
<text text-anchor="start" x="247.7133" y="-575.3" font-family="Arial Bold" font-size="18.00" fill="#000000">ToDoLists</text>
<text text-anchor="start" x="328.7187" y="-575.3" font-family="Arial" font-size="14.00" fill="#000000">    </text>
<text text-anchor="start" x="362.9235" y="-575.3" font-family="Arial" font-size="14.00" fill="#666666">[BASE TABLE]</text>
<polygon fill="none" stroke="#000000" points="241,-532.5 241,-562.5 463,-562.5 463,-532.5 241,-532.5"/>
<text text-anchor="start" x="248" y="-543.9" font-family="Arial" font-size="14.00" fill="#000000">id </text>
<text text-anchor="start" x="262.7798" y="-543.9" font-family="Arial" font-size="14.00" fill="#666666">[int]</text>
<polygon fill="none" stroke="#000000" points="241,-502.5 241,-532.5 463,-532.5 463,-502.5 241,-502.5"/>
<text text-anchor="start" x="248" y="-513.9" font-family="Arial" font-size="14.00" fill="#000000">user_id </text>
<text text-anchor="start" x="297.7882" y="-513.9" font-family="Arial" font-size="14.00" fill="#666666">[int]</text>
<polygon fill="none" stroke="#000000" points="241,-472.5 241,-502.5 463,-502.5 463,-472.5 241,-472.5"/>
<text text-anchor="start" x="248" y="-483.9" font-family="Arial" font-size="14.00" fill="#000000">title </text>
<text text-anchor="start" x="273.6676" y="-483.9" font-family="Arial" font-size="14.00" fill="#666666">[varchar(100)]</text>
<polygon fill="none" stroke="#000000" points="241,-442.5 241,-472.5 463,-472.5 463,-442.5 241,-442.5"/>
<text text-anchor="start" x="248" y="-453.9" font-family="Arial" font-size="14.00" fill="#000000">description </text>
<text text-anchor="start" x="319.568" y="-453.9" font-family="Arial" font-size="14.00" fill="#666666">[text]</text>
<polygon fill="none" stroke="#000000" points="241,-412.5 241,-442.5 463,-442.5 463,-412.5 241,-412.5"/>
<text text-anchor="start" x="248" y="-423.9" font-family="Arial" font-size="14.00" fill="#000000">created_at </text>
<text text-anchor="start" x="318.028" y="-423.9" font-family="Arial" font-size="14.00" fill="#666666">[timestamp]</text>
<polygon fill="none" stroke="#000000" points="241,-382.5 241,-412.5 463,-412.5 463,-382.5 241,-382.5"/>
<text text-anchor="start" x="248" y="-393.9" font-family="Arial" font-size="14.00" fill="#000000">updated_at </text>
<text text-anchor="start" x="321.9326" y="-393.9" font-family="Arial" font-size="14.00" fill="#666666">[timestamp]</text>
<polygon fill="none" stroke="#000000" stroke-width="3" points="239.5,-381.5 239.5,-599.5 464.5,-599.5 464.5,-381.5 239.5,-381.5"/>
</g>
<!-- Users -->
<g id="node3" class="node">
<title>Users</title>
<polygon fill="#efefef" stroke="transparent" points="235,-222.5 235,-257.5 468,-257.5 468,-222.5 235,-222.5"/>
<polygon fill="none" stroke="#000000" points="235,-222.5 235,-257.5 468,-257.5 468,-222.5 235,-222.5"/>
<text text-anchor="start" x="264.2197" y="-235.3" font-family="Arial Bold" font-size="18.00" fill="#000000">Users</text>
<text text-anchor="start" x="311.2123" y="-235.3" font-family="Arial" font-size="14.00" fill="#000000">    </text>
<text text-anchor="start" x="345.4171" y="-235.3" font-family="Arial" font-size="14.00" fill="#666666">[BASE TABLE]</text>
<polygon fill="none" stroke="#000000" points="235,-192.5 235,-222.5 468,-222.5 468,-192.5 235,-192.5"/>
<text text-anchor="start" x="242" y="-203.9" font-family="Arial" font-size="14.00" fill="#000000">id    </text>
<text text-anchor="start" x="287.094" y="-203.9" font-family="Arial" font-size="14.00" fill="#666666">[int]</text>
<polygon fill="none" stroke="#000000" points="235,-162.5 235,-192.5 468,-192.5 468,-162.5 235,-162.5"/>
<text text-anchor="start" x="242" y="-173.9" font-family="Arial" font-size="14.00" fill="#000000">username    </text>
<text text-anchor="start" x="338.439" y="-173.9" font-family="Arial" font-size="14.00" fill="#666666">[varchar(50)]</text>
<polygon fill="none" stroke="#000000" points="235,-132.5 235,-162.5 468,-162.5 468,-132.5 235,-132.5"/>
<text text-anchor="start" x="242" y="-143.9" font-family="Arial" font-size="14.00" fill="#000000">email    </text>
<text text-anchor="start" x="309.6438" y="-143.9" font-family="Arial" font-size="14.00" fill="#666666">[varchar(100)]</text>
<polygon fill="none" stroke="#000000" points="235,-102.5 235,-132.5 468,-132.5 468,-102.5 235,-102.5"/>
<text text-anchor="start" x="241.824" y="-113.9" font-family="Arial" font-size="14.00" fill="#000000">password_hash    </text>
<text text-anchor="start" x="374.0568" y="-113.9" font-family="Arial" font-size="14.00" fill="#666666">[varchar(255)]</text>
<polygon fill="none" stroke="#000000" points="235,-72.5 235,-102.5 468,-102.5 468,-72.5 235,-72.5"/>
<text text-anchor="start" x="242" y="-83.9" font-family="Arial" font-size="14.00" fill="#000000">created_at    </text>
<text text-anchor="start" x="342.3422" y="-83.9" font-family="Arial" font-size="14.00" fill="#666666">[timestamp]</text>
<polygon fill="none" stroke="#000000" points="235,-42.5 235,-72.5 468,-72.5 468,-42.5 235,-42.5"/>
<text text-anchor="start" x="242" y="-53.9" font-family="Arial" font-size="14.00" fill="#000000">updated_at    </text>
<text text-anchor="start" x="346.2468" y="-53.9" font-family="Arial" font-size="14.00" fill="#666666">[timestamp]</text>
</g>
<!-- ToDoLists&#45;&gt;Users -->
<g id="edge2" class="edge">
<title>ToDoLists:user_id&#45;&gt;Users:id</title>
<path fill="none" stroke="#000000" d="M230.8371,-516.7927C163.3533,-506.8823 191.2461,-395.2662 241,-337 307.3331,-259.3181 401.6669,-378.6819 468,-301 494.985,-269.3982 509.5556,-207.5 468,-207.5"/>
<polygon fill="#000000" stroke="#000000" points="231.0241,-516.8057 240.6875,-521.9891 236.0121,-517.1528 241,-517.5 241,-517.5 241,-517.5 236.0121,-517.1528 241.3125,-513.0109 231.0241,-516.8057 231.0241,-516.8057"/>
<text text-anchor="start" x="7.115" y="-527.5" font-family="Arial" font-size="10.00" fill="#000000">FOREIGN KEY (user_id) REFERENCES Users (id)</text>
</g>
<!-- Tasks -->
<g id="node2" class="node">
<title>Tasks</title>
<polygon fill="#efefef" stroke="transparent" points="176,-962.5 176,-997.5 527,-997.5 527,-962.5 176,-962.5"/>
<polygon fill="none" stroke="#000000" points="176,-962.5 176,-997.5 527,-997.5 527,-962.5 176,-962.5"/>
<text text-anchor="start" x="263.7148" y="-975.3" font-family="Arial Bold" font-size="18.00" fill="#000000">Tasks</text>
<text text-anchor="start" x="311.7172" y="-975.3" font-family="Arial" font-size="14.00" fill="#000000">    </text>
<text text-anchor="start" x="345.922" y="-975.3" font-family="Arial" font-size="14.00" fill="#666666">[BASE TABLE]</text>
<polygon fill="none" stroke="#000000" points="176,-932.5 176,-962.5 527,-962.5 527,-932.5 176,-932.5"/>
<text text-anchor="start" x="183" y="-943.9" font-family="Arial" font-size="14.00" fill="#000000">id    </text>
<text text-anchor="start" x="228.094" y="-943.9" font-family="Arial" font-size="14.00" fill="#666666">[int]</text>
<polygon fill="none" stroke="#000000" points="176,-902.5 176,-932.5 527,-932.5 527,-902.5 176,-902.5"/>
<text text-anchor="start" x="183" y="-913.9" font-family="Arial" font-size="14.00" fill="#000000">todo_list_id    </text>
<text text-anchor="start" x="288.0014" y="-913.9" font-family="Arial" font-size="14.00" fill="#666666">[int]</text>
<polygon fill="none" stroke="#000000" points="176,-872.5 176,-902.5 527,-902.5 527,-872.5 176,-872.5"/>
<text text-anchor="start" x="183" y="-883.9" font-family="Arial" font-size="14.00" fill="#000000">title    </text>
<text text-anchor="start" x="238.9818" y="-883.9" font-family="Arial" font-size="14.00" fill="#666666">[varchar(100)]</text>
<polygon fill="none" stroke="#000000" points="176,-842.5 176,-872.5 527,-872.5 527,-842.5 176,-842.5"/>
<text text-anchor="start" x="183" y="-853.9" font-family="Arial" font-size="14.00" fill="#000000">description    </text>
<text text-anchor="start" x="284.8822" y="-853.9" font-family="Arial" font-size="14.00" fill="#666666">[text]</text>
<polygon fill="none" stroke="#000000" points="176,-812.5 176,-842.5 527,-842.5 527,-812.5 176,-812.5"/>
<text text-anchor="start" x="183" y="-823.9" font-family="Arial" font-size="14.00" fill="#000000">due_date    </text>
<text text-anchor="start" x="275.5736" y="-823.9" font-family="Arial" font-size="14.00" fill="#666666">[date]</text>
<polygon fill="none" stroke="#000000" points="176,-782.5 176,-812.5 527,-812.5 527,-782.5 176,-782.5"/>
<text text-anchor="start" x="182.7524" y="-793.9" font-family="Arial" font-size="14.00" fill="#000000">status    </text>
<text text-anchor="start" x="254.3036" y="-793.9" font-family="Arial" font-size="14.00" fill="#666666">[enum(&#39;pending&#39;,&#39;in_progress&#39;,&#39;completed&#39;)]</text>
<polygon fill="none" stroke="#000000" points="176,-752.5 176,-782.5 527,-782.5 527,-752.5 176,-752.5"/>
<text text-anchor="start" x="183" y="-763.9" font-family="Arial" font-size="14.00" fill="#000000">created_at    </text>
<text text-anchor="start" x="283.3422" y="-763.9" font-family="Arial" font-size="14.00" fill="#666666">[timestamp]</text>
<polygon fill="none" stroke="#000000" points="176,-722.5 176,-752.5 527,-752.5 527,-722.5 176,-722.5"/>
<text text-anchor="start" x="183" y="-733.9" font-family="Arial" font-size="14.00" fill="#000000">updated_at    </text>
<text text-anchor="start" x="287.2468" y="-733.9" font-family="Arial" font-size="14.00" fill="#666666">[timestamp]</text>
</g>
<!-- Tasks&#45;&gt;ToDoLists -->
<g id="edge1" class="edge">
<title>Tasks:todo_list_id&#45;&gt;ToDoLists:id</title>
<path fill="none" stroke="#000000" d="M537.051,-916.985C630.1451,-907.0727 594.5045,-756.5343 527,-680 442.2551,-583.9191 325.7449,-740.0809 241,-644 212.6299,-611.8349 198.1111,-547.5 241,-547.5"/>
<polygon fill="#000000" stroke="#000000" points="536.9869,-916.9882 526.7697,-913.0059 531.9934,-917.2441 527,-917.5 527,-917.5 527,-917.5 531.9934,-917.2441 527.2303,-921.9941 536.9869,-916.9882 536.9869,-916.9882"/>
<text text-anchor="start" x="533.7745" y="-927.5" font-family="Arial" font-size="10.00" fill="#000000">FOREIGN KEY (todo_list_id) REFERENCES ToDoLists (id)</text>
</g>
</g>
</svg>
