<?xml version="1.0" encoding="UTF-8" standalone="no"?>
<!DOCTYPE svg PUBLIC "-//W3C//DTD SVG 1.1//EN"
 "http://www.w3.org/Graphics/SVG/1.1/DTD/svg11.dtd">
<!-- Generated by graphviz version 2.40.1 (20161225.0304)
 -->
<!-- Title: Tasks Pages: 1 -->
<svg width="654pt" height="712pt"
 viewBox="0.00 0.00 653.50 712.00" xmlns="http://www.w3.org/2000/svg" xmlns:xlink="http://www.w3.org/1999/xlink">
<g id="graph0" class="graph" transform="scale(1 1) rotate(0) translate(4 708)">
<title>Tasks</title>
<polygon fill="#ffffff" stroke="transparent" points="-4,4 -4,-708 649.5,-708 649.5,4 -4,4"/>
<!-- Tasks -->
<g id="node1" class="node">
<title>Tasks</title>
<polygon fill="#efefef" stroke="transparent" points="46.5,-622.5 46.5,-657.5 367.5,-657.5 367.5,-622.5 46.5,-622.5"/>
<polygon fill="none" stroke="#000000" points="46.5,-622.5 46.5,-657.5 367.5,-657.5 367.5,-622.5 46.5,-622.5"/>
<text text-anchor="start" x="119.2148" y="-635.3" font-family="Arial Bold" font-size="18.00" fill="#000000">Tasks</text>
<text text-anchor="start" x="167.2172" y="-635.3" font-family="Arial" font-size="14.00" fill="#000000">    </text>
<text text-anchor="start" x="201.422" y="-635.3" font-family="Arial" font-size="14.00" fill="#666666">[BASE TABLE]</text>
<polygon fill="none" stroke="#000000" points="46.5,-592.5 46.5,-622.5 367.5,-622.5 367.5,-592.5 46.5,-592.5"/>
<text text-anchor="start" x="53.5" y="-603.9" font-family="Arial" font-size="14.00" fill="#000000">id </text>
<text text-anchor="start" x="68.2798" y="-603.9" font-family="Arial" font-size="14.00" fill="#666666">[int]</text>
<polygon fill="none" stroke="#000000" points="46.5,-562.5 46.5,-592.5 367.5,-592.5 367.5,-562.5 46.5,-562.5"/>
<text text-anchor="start" x="53.5" y="-573.9" font-family="Arial" font-size="14.00" fill="#000000">todo_list_id </text>
<text text-anchor="start" x="128.1872" y="-573.9" font-family="Arial" font-size="14.00" fill="#666666">[int]</text>
<polygon fill="none" stroke="#000000" points="46.5,-532.5 46.5,-562.5 367.5,-562.5 367.5,-532.5 46.5,-532.5"/>
<text text-anchor="start" x="53.5" y="-543.9" font-family="Arial" font-size="14.00" fill="#000000">title </text>
<text text-anchor="start" x="79.1676" y="-543.9" font-family="Arial" font-size="14.00" fill="#666666">[varchar(100)]</text>
<polygon fill="none" stroke="#000000" points="46.5,-502.5 46.5,-532.5 367.5,-532.5 367.5,-502.5 46.5,-502.5"/>
<text text-anchor="start" x="53.5" y="-513.9" font-family="Arial" font-size="14.00" fill="#000000">description </text>
<text text-anchor="start" x="125.068" y="-513.9" font-family="Arial" font-size="14.00" fill="#666666">[text]</text>
<polygon fill="none" stroke="#000000" points="46.5,-472.5 46.5,-502.5 367.5,-502.5 367.5,-472.5 46.5,-472.5"/>
<text text-anchor="start" x="53.5" y="-483.9" font-family="Arial" font-size="14.00" fill="#000000">due_date </text>
<text text-anchor="start" x="115.7594" y="-483.9" font-family="Arial" font-size="14.00" fill="#666666">[date]</text>
<polygon fill="none" stroke="#000000" points="46.5,-442.5 46.5,-472.5 367.5,-472.5 367.5,-442.5 46.5,-442.5"/>
<text text-anchor="start" x="53.4095" y="-453.9" font-family="Arial" font-size="14.00" fill="#000000">status </text>
<text text-anchor="start" x="94.6465" y="-453.9" font-family="Arial" font-size="14.00" fill="#666666">[enum(&#39;pending&#39;,&#39;in_progress&#39;,&#39;completed&#39;)]</text>
<polygon fill="none" stroke="#000000" points="46.5,-412.5 46.5,-442.5 367.5,-442.5 367.5,-412.5 46.5,-412.5"/>
<text text-anchor="start" x="53.5" y="-423.9" font-family="Arial" font-size="14.00" fill="#000000">created_at </text>
<text text-anchor="start" x="123.528" y="-423.9" font-family="Arial" font-size="14.00" fill="#666666">[timestamp]</text>
<polygon fill="none" stroke="#000000" points="46.5,-382.5 46.5,-412.5 367.5,-412.5 367.5,-382.5 46.5,-382.5"/>
<text text-anchor="start" x="53.5" y="-393.9" font-family="Arial" font-size="14.00" fill="#000000">updated_at </text>
<text text-anchor="start" x="127.4326" y="-393.9" font-family="Arial" font-size="14.00" fill="#666666">[timestamp]</text>
<polygon fill="none" stroke="#000000" stroke-width="3" points="44.5,-381.5 44.5,-659.5 368.5,-659.5 368.5,-381.5 44.5,-381.5"/>
</g>
<!-- ToDoLists -->
<g id="node2" class="node">
<title>ToDoLists</title>
<polygon fill="#efefef" stroke="transparent" points="96.5,-222.5 96.5,-257.5 318.5,-257.5 318.5,-222.5 96.5,-222.5"/>
<polygon fill="none" stroke="#000000" points="96.5,-222.5 96.5,-257.5 318.5,-257.5 318.5,-222.5 96.5,-222.5"/>
<text text-anchor="start" x="103.2133" y="-235.3" font-family="Arial Bold" font-size="18.00" fill="#000000">ToDoLists</text>
<text text-anchor="start" x="184.2187" y="-235.3" font-family="Arial" font-size="14.00" fill="#000000">    </text>
<text text-anchor="start" x="218.4235" y="-235.3" font-family="Arial" font-size="14.00" fill="#666666">[BASE TABLE]</text>
<polygon fill="none" stroke="#000000" points="96.5,-192.5 96.5,-222.5 318.5,-222.5 318.5,-192.5 96.5,-192.5"/>
<text text-anchor="start" x="103.5" y="-203.9" font-family="Arial" font-size="14.00" fill="#000000">id    </text>
<text text-anchor="start" x="148.594" y="-203.9" font-family="Arial" font-size="14.00" fill="#666666">[int]</text>
<polygon fill="none" stroke="#000000" points="96.5,-162.5 96.5,-192.5 318.5,-192.5 318.5,-162.5 96.5,-162.5"/>
<text text-anchor="start" x="103.5" y="-173.9" font-family="Arial" font-size="14.00" fill="#000000">user_id    </text>
<text text-anchor="start" x="183.6024" y="-173.9" font-family="Arial" font-size="14.00" fill="#666666">[int]</text>
<polygon fill="none" stroke="#000000" points="96.5,-132.5 96.5,-162.5 318.5,-162.5 318.5,-132.5 96.5,-132.5"/>
<text text-anchor="start" x="103.5" y="-143.9" font-family="Arial" font-size="14.00" fill="#000000">title    </text>
<text text-anchor="start" x="159.4818" y="-143.9" font-family="Arial" font-size="14.00" fill="#666666">[varchar(100)]</text>
<polygon fill="none" stroke="#000000" points="96.5,-102.5 96.5,-132.5 318.5,-132.5 318.5,-102.5 96.5,-102.5"/>
<text text-anchor="start" x="103.5" y="-113.9" font-family="Arial" font-size="14.00" fill="#000000">description    </text>
<text text-anchor="start" x="205.3822" y="-113.9" font-family="Arial" font-size="14.00" fill="#666666">[text]</text>
<polygon fill="none" stroke="#000000" points="96.5,-72.5 96.5,-102.5 318.5,-102.5 318.5,-72.5 96.5,-72.5"/>
<text text-anchor="start" x="103.5" y="-83.9" font-family="Arial" font-size="14.00" fill="#000000">created_at    </text>
<text text-anchor="start" x="203.8422" y="-83.9" font-family="Arial" font-size="14.00" fill="#666666">[timestamp]</text>
<polygon fill="none" stroke="#000000" points="96.5,-42.5 96.5,-72.5 318.5,-72.5 318.5,-42.5 96.5,-42.5"/>
<text text-anchor="start" x="103.5" y="-53.9" font-family="Arial" font-size="14.00" fill="#000000">updated_at    </text>
<text text-anchor="start" x="207.7468" y="-53.9" font-family="Arial" font-size="14.00" fill="#666666">[timestamp]</text>
</g>
<!-- Tasks&#45;&gt;ToDoLists -->
<g id="edge1" class="edge">
<title>Tasks:todo_list_id&#45;&gt;ToDoLists:id</title>
<path fill="none" stroke="#000000" d="M377.677,-576.9793C471.9303,-566.9565 435.5913,-414.7348 367.5,-337 287.4412,-245.6028 176.5588,-392.3972 96.5,-301 69.1188,-269.7409 54.9444,-207.5 96.5,-207.5"/>
<polygon fill="#000000" stroke="#000000" points="377.4869,-576.9889 367.27,-573.0059 372.4935,-577.2445 367.5,-577.5 367.5,-577.5 367.5,-577.5 372.4935,-577.2445 367.73,-581.9941 377.4869,-576.9889 377.4869,-576.9889"/>
<text text-anchor="start" x="374.2745" y="-587.5" font-family="Arial" font-size="10.00" fill="#000000">FOREIGN KEY (todo_list_id) REFERENCES ToDoLists (id)</text>
</g>
</g>
</svg>
