<?xml version="1.0" encoding="UTF-8" standalone="no"?>
<!DOCTYPE svg PUBLIC "-//W3C//DTD SVG 1.1//EN"
 "http://www.w3.org/Graphics/SVG/1.1/DTD/svg11.dtd">
<!-- Generated by graphviz version 2.40.1 (20161225.0304)
 -->
<!-- Title: tbls_database Pages: 1 -->
<svg width="733pt" height="1043pt"
 viewBox="0.00 0.00 733.00 1043.00" xmlns="http://www.w3.org/2000/svg" xmlns:xlink="http://www.w3.org/1999/xlink">
<g id="graph0" class="graph" transform="scale(1 1) rotate(0) translate(4 1039)">
<title>tbls_database</title>
<polygon fill="#ffffff" stroke="transparent" points="-4,4 -4,-1039 729,-1039 729,4 -4,4"/>
<!-- Tasks -->
<g id="node1" class="node">
<title>Tasks</title>
<polygon fill="#efefef" stroke="transparent" points="257,-956.5 257,-991.5 447,-991.5 447,-956.5 257,-956.5"/>
<polygon fill="none" stroke="#000000" points="257,-956.5 257,-991.5 447,-991.5 447,-956.5 257,-956.5"/>
<text text-anchor="start" x="264.2148" y="-969.3" font-family="Arial Bold" font-size="18.00" fill="#000000">Tasks</text>
<text text-anchor="start" x="312.2172" y="-969.3" font-family="Arial" font-size="14.00" fill="#000000">    </text>
<text text-anchor="start" x="346.422" y="-969.3" font-family="Arial" font-size="14.00" fill="#666666">[BASE TABLE]</text>
<polygon fill="none" stroke="#000000" points="257,-926.5 257,-956.5 447,-956.5 447,-926.5 257,-926.5"/>
<text text-anchor="start" x="264" y="-937.9" font-family="Arial" font-size="14.00" fill="#000000">id    </text>
<text text-anchor="start" x="309.094" y="-937.9" font-family="Arial" font-size="14.00" fill="#666666">[int]</text>
<polygon fill="none" stroke="#000000" points="257,-896.5 257,-926.5 447,-926.5 447,-896.5 257,-896.5"/>
<text text-anchor="start" x="264" y="-907.9" font-family="Arial" font-size="14.00" fill="#000000">todo_list_id    </text>
<text text-anchor="start" x="369.0014" y="-907.9" font-family="Arial" font-size="14.00" fill="#666666">[int]</text>
<polygon fill="none" stroke="#000000" points="257,-866.5 257,-896.5 447,-896.5 447,-866.5 257,-866.5"/>
<text text-anchor="start" x="264" y="-877.9" font-family="Arial" font-size="14.00" fill="#000000">title    </text>
<text text-anchor="start" x="319.9818" y="-877.9" font-family="Arial" font-size="14.00" fill="#666666">[varchar(100)]</text>
<polygon fill="none" stroke="#000000" points="257,-836.5 257,-866.5 447,-866.5 447,-836.5 257,-836.5"/>
<text text-anchor="start" x="264" y="-847.9" font-family="Arial" font-size="14.00" fill="#000000">description    </text>
<text text-anchor="start" x="365.8822" y="-847.9" font-family="Arial" font-size="14.00" fill="#666666">[text]</text>
<polygon fill="none" stroke="#000000" points="257,-806.5 257,-836.5 447,-836.5 447,-806.5 257,-806.5"/>
<text text-anchor="start" x="264" y="-817.9" font-family="Arial" font-size="14.00" fill="#000000">due_date    </text>
<text text-anchor="start" x="356.5736" y="-817.9" font-family="Arial" font-size="14.00" fill="#666666">[date]</text>
<polygon fill="none" stroke="#000000" points="257,-776.5 257,-806.5 447,-806.5 447,-776.5 257,-776.5"/>
<text text-anchor="start" x="264" y="-787.9" font-family="Arial" font-size="14.00" fill="#000000">status    </text>
<text text-anchor="start" x="335.5512" y="-787.9" font-family="Arial" font-size="14.00" fill="#666666">[varchar(20)]</text>
<polygon fill="none" stroke="#000000" points="257,-746.5 257,-776.5 447,-776.5 447,-746.5 257,-746.5"/>
<text text-anchor="start" x="264" y="-757.9" font-family="Arial" font-size="14.00" fill="#000000">created_at    </text>
<text text-anchor="start" x="364.3422" y="-757.9" font-family="Arial" font-size="14.00" fill="#666666">[timestamp]</text>
<polygon fill="none" stroke="#000000" points="257,-716.5 257,-746.5 447,-746.5 447,-716.5 257,-716.5"/>
<text text-anchor="start" x="263.7076" y="-727.9" font-family="Arial" font-size="14.00" fill="#000000">updated_at    </text>
<text text-anchor="start" x="367.9544" y="-727.9" font-family="Arial" font-size="14.00" fill="#666666">[timestamp]</text>
</g>
<!-- ToDoLists -->
<g id="node2" class="node">
<title>ToDoLists</title>
<polygon fill="#efefef" stroke="transparent" points="241,-559.5 241,-594.5 463,-594.5 463,-559.5 241,-559.5"/>
<polygon fill="none" stroke="#000000" points="241,-559.5 241,-594.5 463,-594.5 463,-559.5 241,-559.5"/>
<text text-anchor="start" x="247.7133" y="-572.3" font-family="Arial Bold" font-size="18.00" fill="#000000">ToDoLists</text>
<text text-anchor="start" x="328.7187" y="-572.3" font-family="Arial" font-size="14.00" fill="#000000">    </text>
<text text-anchor="start" x="362.9235" y="-572.3" font-family="Arial" font-size="14.00" fill="#666666">[BASE TABLE]</text>
<polygon fill="none" stroke="#000000" points="241,-529.5 241,-559.5 463,-559.5 463,-529.5 241,-529.5"/>
<text text-anchor="start" x="248" y="-540.9" font-family="Arial" font-size="14.00" fill="#000000">id    </text>
<text text-anchor="start" x="293.094" y="-540.9" font-family="Arial" font-size="14.00" fill="#666666">[int]</text>
<polygon fill="none" stroke="#000000" points="241,-499.5 241,-529.5 463,-529.5 463,-499.5 241,-499.5"/>
<text text-anchor="start" x="248" y="-510.9" font-family="Arial" font-size="14.00" fill="#000000">user_id    </text>
<text text-anchor="start" x="328.1024" y="-510.9" font-family="Arial" font-size="14.00" fill="#666666">[int]</text>
<polygon fill="none" stroke="#000000" points="241,-469.5 241,-499.5 463,-499.5 463,-469.5 241,-469.5"/>
<text text-anchor="start" x="248" y="-480.9" font-family="Arial" font-size="14.00" fill="#000000">title    </text>
<text text-anchor="start" x="303.9818" y="-480.9" font-family="Arial" font-size="14.00" fill="#666666">[varchar(100)]</text>
<polygon fill="none" stroke="#000000" points="241,-439.5 241,-469.5 463,-469.5 463,-439.5 241,-439.5"/>
<text text-anchor="start" x="248" y="-450.9" font-family="Arial" font-size="14.00" fill="#000000">description    </text>
<text text-anchor="start" x="349.8822" y="-450.9" font-family="Arial" font-size="14.00" fill="#666666">[text]</text>
<polygon fill="none" stroke="#000000" points="241,-409.5 241,-439.5 463,-439.5 463,-409.5 241,-409.5"/>
<text text-anchor="start" x="248" y="-420.9" font-family="Arial" font-size="14.00" fill="#000000">created_at    </text>
<text text-anchor="start" x="348.3422" y="-420.9" font-family="Arial" font-size="14.00" fill="#666666">[timestamp]</text>
<polygon fill="none" stroke="#000000" points="241,-379.5 241,-409.5 463,-409.5 463,-379.5 241,-379.5"/>
<text text-anchor="start" x="248" y="-390.9" font-family="Arial" font-size="14.00" fill="#000000">updated_at    </text>
<text text-anchor="start" x="352.2468" y="-390.9" font-family="Arial" font-size="14.00" fill="#666666">[timestamp]</text>
</g>
<!-- Tasks&#45;&gt;ToDoLists -->
<g id="edge1" class="edge">
<title>Tasks:todo_list_id&#45;&gt;ToDoLists:id</title>
<path fill="none" stroke="#000000" d="M457.1569,-909.5254C529.8278,-880.6385 541.1254,-544.5 463,-544.5"/>
<polygon fill="#000000" stroke="#000000" points="456.8162,-909.5916 446.1412,-907.0827 451.9081,-910.5458 447,-911.5 447,-911.5 447,-911.5 451.9081,-910.5458 447.8588,-915.9173 456.8162,-909.5916 456.8162,-909.5916"/>
<text text-anchor="start" x="453.7745" y="-921.5" font-family="Arial" font-size="10.00" fill="#000000">FOREIGN KEY (todo_list_id) REFERENCES ToDoLists (id)</text>
</g>
<!-- Users -->
<g id="node3" class="node">
<title>Users</title>
<polygon fill="#efefef" stroke="transparent" points="235,-222.5 235,-257.5 468,-257.5 468,-222.5 235,-222.5"/>
<polygon fill="none" stroke="#000000" points="235,-222.5 235,-257.5 468,-257.5 468,-222.5 235,-222.5"/>
<text text-anchor="start" x="264.2197" y="-235.3" font-family="Arial Bold" font-size="18.00" fill="#000000">Users</text>
<text text-anchor="start" x="311.2123" y="-235.3" font-family="Arial" font-size="14.00" fill="#000000">    </text>
<text text-anchor="start" x="345.4171" y="-235.3" font-family="Arial" font-size="14.00" fill="#666666">[BASE TABLE]</text>
<polygon fill="none" stroke="#000000" points="235,-192.5 235,-222.5 468,-222.5 468,-192.5 235,-192.5"/>
<text text-anchor="start" x="242" y="-203.9" font-family="Arial" font-size="14.00" fill="#000000">id    </text>
<text text-anchor="start" x="287.094" y="-203.9" font-family="Arial" font-size="14.00" fill="#666666">[int]</text>
<polygon fill="none" stroke="#000000" points="235,-162.5 235,-192.5 468,-192.5 468,-162.5 235,-162.5"/>
<text text-anchor="start" x="242" y="-173.9" font-family="Arial" font-size="14.00" fill="#000000">username    </text>
<text text-anchor="start" x="338.439" y="-173.9" font-family="Arial" font-size="14.00" fill="#666666">[varchar(50)]</text>
<polygon fill="none" stroke="#000000" points="235,-132.5 235,-162.5 468,-162.5 468,-132.5 235,-132.5"/>
<text text-anchor="start" x="242" y="-143.9" font-family="Arial" font-size="14.00" fill="#000000">email    </text>
<text text-anchor="start" x="309.6438" y="-143.9" font-family="Arial" font-size="14.00" fill="#666666">[varchar(100)]</text>
<polygon fill="none" stroke="#000000" points="235,-102.5 235,-132.5 468,-132.5 468,-102.5 235,-102.5"/>
<text text-anchor="start" x="241.824" y="-113.9" font-family="Arial" font-size="14.00" fill="#000000">password_hash    </text>
<text text-anchor="start" x="374.0568" y="-113.9" font-family="Arial" font-size="14.00" fill="#666666">[varchar(255)]</text>
<polygon fill="none" stroke="#000000" points="235,-72.5 235,-102.5 468,-102.5 468,-72.5 235,-72.5"/>
<text text-anchor="start" x="242" y="-83.9" font-family="Arial" font-size="14.00" fill="#000000">created_at    </text>
<text text-anchor="start" x="342.3422" y="-83.9" font-family="Arial" font-size="14.00" fill="#666666">[timestamp]</text>
<polygon fill="none" stroke="#000000" points="235,-42.5 235,-72.5 468,-72.5 468,-42.5 235,-42.5"/>
<text text-anchor="start" x="242" y="-53.9" font-family="Arial" font-size="14.00" fill="#000000">updated_at    </text>
<text text-anchor="start" x="346.2468" y="-53.9" font-family="Arial" font-size="14.00" fill="#666666">[timestamp]</text>
</g>
<!-- ToDoLists&#45;&gt;Users -->
<g id="edge2" class="edge">
<title>ToDoLists:user_id&#45;&gt;Users:id</title>
<path fill="none" stroke="#000000" d="M231.006,-513.8045C164.6438,-504.0588 192.0731,-394.2977 241,-337 307.3331,-259.3181 401.6669,-378.6819 468,-301 494.985,-269.3982 509.5556,-207.5 468,-207.5"/>
<polygon fill="#000000" stroke="#000000" points="231.0241,-513.8057 240.6875,-518.9891 236.0121,-514.1528 241,-514.5 241,-514.5 241,-514.5 236.0121,-514.1528 241.3125,-510.0109 231.0241,-513.8057 231.0241,-513.8057"/>
<text text-anchor="start" x="7.115" y="-524.5" font-family="Arial" font-size="10.00" fill="#000000">FOREIGN KEY (user_id) REFERENCES Users (id)</text>
</g>
</g>
</svg>
