<?xml version="1.0" encoding="UTF-8" standalone="no"?>
<!DOCTYPE svg PUBLIC "-//W3C//DTD SVG 1.1//EN"
 "http://www.w3.org/Graphics/SVG/1.1/DTD/svg11.dtd">
<!-- Generated by graphviz version 2.40.1 (20161225.0304)
 -->
<!-- Title: Tasks Pages: 1 -->
<svg width="534pt" height="712pt"
 viewBox="0.00 0.00 534.00 712.00" xmlns="http://www.w3.org/2000/svg" xmlns:xlink="http://www.w3.org/1999/xlink">
<g id="graph0" class="graph" transform="scale(1 1) rotate(0) translate(4 708)">
<title>Tasks</title>
<polygon fill="#ffffff" stroke="transparent" points="-4,4 -4,-708 530,-708 530,4 -4,4"/>
<!-- Tasks -->
<g id="node1" class="node">
<title>Tasks</title>
<polygon fill="#efefef" stroke="transparent" points="59,-622.5 59,-657.5 248,-657.5 248,-622.5 59,-622.5"/>
<polygon fill="none" stroke="#000000" points="59,-622.5 59,-657.5 248,-657.5 248,-622.5 59,-622.5"/>
<text text-anchor="start" x="65.7148" y="-635.3" font-family="Arial Bold" font-size="18.00" fill="#000000">Tasks</text>
<text text-anchor="start" x="113.7172" y="-635.3" font-family="Arial" font-size="14.00" fill="#000000">    </text>
<text text-anchor="start" x="147.922" y="-635.3" font-family="Arial" font-size="14.00" fill="#666666">[BASE TABLE]</text>
<polygon fill="none" stroke="#000000" points="59,-592.5 59,-622.5 248,-622.5 248,-592.5 59,-592.5"/>
<text text-anchor="start" x="66" y="-603.9" font-family="Arial" font-size="14.00" fill="#000000">id </text>
<text text-anchor="start" x="80.7798" y="-603.9" font-family="Arial" font-size="14.00" fill="#666666">[int]</text>
<polygon fill="none" stroke="#000000" points="59,-562.5 59,-592.5 248,-592.5 248,-562.5 59,-562.5"/>
<text text-anchor="start" x="66" y="-573.9" font-family="Arial" font-size="14.00" fill="#000000">todo_list_id </text>
<text text-anchor="start" x="140.6872" y="-573.9" font-family="Arial" font-size="14.00" fill="#666666">[int]</text>
<polygon fill="none" stroke="#000000" points="59,-532.5 59,-562.5 248,-562.5 248,-532.5 59,-532.5"/>
<text text-anchor="start" x="66" y="-543.9" font-family="Arial" font-size="14.00" fill="#000000">title </text>
<text text-anchor="start" x="91.6676" y="-543.9" font-family="Arial" font-size="14.00" fill="#666666">[varchar(100)]</text>
<polygon fill="none" stroke="#000000" points="59,-502.5 59,-532.5 248,-532.5 248,-502.5 59,-502.5"/>
<text text-anchor="start" x="66" y="-513.9" font-family="Arial" font-size="14.00" fill="#000000">description </text>
<text text-anchor="start" x="137.568" y="-513.9" font-family="Arial" font-size="14.00" fill="#666666">[text]</text>
<polygon fill="none" stroke="#000000" points="59,-472.5 59,-502.5 248,-502.5 248,-472.5 59,-472.5"/>
<text text-anchor="start" x="66" y="-483.9" font-family="Arial" font-size="14.00" fill="#000000">due_date </text>
<text text-anchor="start" x="128.2594" y="-483.9" font-family="Arial" font-size="14.00" fill="#666666">[date]</text>
<polygon fill="none" stroke="#000000" points="59,-442.5 59,-472.5 248,-472.5 248,-442.5 59,-442.5"/>
<text text-anchor="start" x="66" y="-453.9" font-family="Arial" font-size="14.00" fill="#000000">status </text>
<text text-anchor="start" x="107.237" y="-453.9" font-family="Arial" font-size="14.00" fill="#666666">[varchar(20)]</text>
<polygon fill="none" stroke="#000000" points="59,-412.5 59,-442.5 248,-442.5 248,-412.5 59,-412.5"/>
<text text-anchor="start" x="66" y="-423.9" font-family="Arial" font-size="14.00" fill="#000000">created_at </text>
<text text-anchor="start" x="136.028" y="-423.9" font-family="Arial" font-size="14.00" fill="#666666">[timestamp]</text>
<polygon fill="none" stroke="#000000" points="59,-382.5 59,-412.5 248,-412.5 248,-382.5 59,-382.5"/>
<text text-anchor="start" x="66" y="-393.9" font-family="Arial" font-size="14.00" fill="#000000">updated_at </text>
<text text-anchor="start" x="139.9326" y="-393.9" font-family="Arial" font-size="14.00" fill="#666666">[timestamp]</text>
<polygon fill="none" stroke="#000000" stroke-width="3" points="57,-381.5 57,-659.5 249,-659.5 249,-381.5 57,-381.5"/>
</g>
<!-- ToDoLists -->
<g id="node2" class="node">
<title>ToDoLists</title>
<polygon fill="#efefef" stroke="transparent" points="43,-222.5 43,-257.5 265,-257.5 265,-222.5 43,-222.5"/>
<polygon fill="none" stroke="#000000" points="43,-222.5 43,-257.5 265,-257.5 265,-222.5 43,-222.5"/>
<text text-anchor="start" x="49.7133" y="-235.3" font-family="Arial Bold" font-size="18.00" fill="#000000">ToDoLists</text>
<text text-anchor="start" x="130.7187" y="-235.3" font-family="Arial" font-size="14.00" fill="#000000">    </text>
<text text-anchor="start" x="164.9235" y="-235.3" font-family="Arial" font-size="14.00" fill="#666666">[BASE TABLE]</text>
<polygon fill="none" stroke="#000000" points="43,-192.5 43,-222.5 265,-222.5 265,-192.5 43,-192.5"/>
<text text-anchor="start" x="50" y="-203.9" font-family="Arial" font-size="14.00" fill="#000000">id    </text>
<text text-anchor="start" x="95.094" y="-203.9" font-family="Arial" font-size="14.00" fill="#666666">[int]</text>
<polygon fill="none" stroke="#000000" points="43,-162.5 43,-192.5 265,-192.5 265,-162.5 43,-162.5"/>
<text text-anchor="start" x="50" y="-173.9" font-family="Arial" font-size="14.00" fill="#000000">user_id    </text>
<text text-anchor="start" x="130.1024" y="-173.9" font-family="Arial" font-size="14.00" fill="#666666">[int]</text>
<polygon fill="none" stroke="#000000" points="43,-132.5 43,-162.5 265,-162.5 265,-132.5 43,-132.5"/>
<text text-anchor="start" x="50" y="-143.9" font-family="Arial" font-size="14.00" fill="#000000">title    </text>
<text text-anchor="start" x="105.9818" y="-143.9" font-family="Arial" font-size="14.00" fill="#666666">[varchar(100)]</text>
<polygon fill="none" stroke="#000000" points="43,-102.5 43,-132.5 265,-132.5 265,-102.5 43,-102.5"/>
<text text-anchor="start" x="50" y="-113.9" font-family="Arial" font-size="14.00" fill="#000000">description    </text>
<text text-anchor="start" x="151.8822" y="-113.9" font-family="Arial" font-size="14.00" fill="#666666">[text]</text>
<polygon fill="none" stroke="#000000" points="43,-72.5 43,-102.5 265,-102.5 265,-72.5 43,-72.5"/>
<text text-anchor="start" x="50" y="-83.9" font-family="Arial" font-size="14.00" fill="#000000">created_at    </text>
<text text-anchor="start" x="150.3422" y="-83.9" font-family="Arial" font-size="14.00" fill="#666666">[timestamp]</text>
<polygon fill="none" stroke="#000000" points="43,-42.5 43,-72.5 265,-72.5 265,-42.5 43,-42.5"/>
<text text-anchor="start" x="50" y="-53.9" font-family="Arial" font-size="14.00" fill="#000000">updated_at    </text>
<text text-anchor="start" x="154.2468" y="-53.9" font-family="Arial" font-size="14.00" fill="#666666">[timestamp]</text>
</g>
<!-- Tasks&#45;&gt;ToDoLists -->
<g id="edge1" class="edge">
<title>Tasks:todo_list_id&#45;&gt;ToDoLists:id</title>
<path fill="none" stroke="#000000" d="M258.1716,-576.9839C352.3215,-567.0498 314.4531,-416.1398 248,-337 188.5141,-266.1575 102.4859,-371.8425 43,-301 16.2775,-269.1759 1.4444,-207.5 43,-207.5"/>
<polygon fill="#000000" stroke="#000000" points="257.9872,-576.9932 247.7719,-573.0058 252.9936,-577.2466 248,-577.5 248,-577.5 248,-577.5 252.9936,-577.2466 248.2281,-581.9942 257.9872,-576.9932 257.9872,-576.9932"/>
<text text-anchor="start" x="254.7745" y="-587.5" font-family="Arial" font-size="10.00" fill="#000000">FOREIGN KEY (todo_list_id) REFERENCES ToDoLists (id)</text>
</g>
</g>
</svg>
