<?xml version="1.0" encoding="UTF-8" standalone="no"?>
<!DOCTYPE svg PUBLIC "-//W3C//DTD SVG 1.1//EN"
 "http://www.w3.org/Graphics/SVG/1.1/DTD/svg11.dtd">
<!-- Generated by graphviz version 2.40.1 (20161225.0304)
 -->
<!-- Title: Users Pages: 1 -->
<svg width="514pt" height="652pt"
 viewBox="0.00 0.00 514.00 652.00" xmlns="http://www.w3.org/2000/svg" xmlns:xlink="http://www.w3.org/1999/xlink">
<g id="graph0" class="graph" transform="scale(1 1) rotate(0) translate(4 648)">
<title>Users</title>
<polygon fill="#ffffff" stroke="transparent" points="-4,4 -4,-648 510,-648 510,4 -4,4"/>
<!-- Users -->
<g id="node1" class="node">
<title>Users</title>
<polygon fill="#efefef" stroke="transparent" points="250,-225.5 250,-260.5 453,-260.5 453,-225.5 250,-225.5"/>
<polygon fill="none" stroke="#000000" points="250,-225.5 250,-260.5 453,-260.5 453,-225.5 250,-225.5"/>
<text text-anchor="start" x="264.2197" y="-238.3" font-family="Arial Bold" font-size="18.00" fill="#000000">Users</text>
<text text-anchor="start" x="311.2123" y="-238.3" font-family="Arial" font-size="14.00" fill="#000000">    </text>
<text text-anchor="start" x="345.4171" y="-238.3" font-family="Arial" font-size="14.00" fill="#666666">[BASE TABLE]</text>
<polygon fill="none" stroke="#000000" points="250,-195.5 250,-225.5 453,-225.5 453,-195.5 250,-195.5"/>
<text text-anchor="start" x="257" y="-206.9" font-family="Arial" font-size="14.00" fill="#000000">id </text>
<text text-anchor="start" x="271.7798" y="-206.9" font-family="Arial" font-size="14.00" fill="#666666">[int]</text>
<polygon fill="none" stroke="#000000" points="250,-165.5 250,-195.5 453,-195.5 453,-165.5 250,-165.5"/>
<text text-anchor="start" x="257" y="-176.9" font-family="Arial" font-size="14.00" fill="#000000">username </text>
<text text-anchor="start" x="323.1248" y="-176.9" font-family="Arial" font-size="14.00" fill="#666666">[varchar(50)]</text>
<polygon fill="none" stroke="#000000" points="250,-135.5 250,-165.5 453,-165.5 453,-135.5 250,-135.5"/>
<text text-anchor="start" x="257" y="-146.9" font-family="Arial" font-size="14.00" fill="#000000">email </text>
<text text-anchor="start" x="294.3296" y="-146.9" font-family="Arial" font-size="14.00" fill="#666666">[varchar(100)]</text>
<polygon fill="none" stroke="#000000" points="250,-105.5 250,-135.5 453,-135.5 453,-105.5 250,-105.5"/>
<text text-anchor="start" x="256.9811" y="-116.9" font-family="Arial" font-size="14.00" fill="#000000">password_hash </text>
<text text-anchor="start" x="358.8997" y="-116.9" font-family="Arial" font-size="14.00" fill="#666666">[varchar(255)]</text>
<polygon fill="none" stroke="#000000" points="250,-75.5 250,-105.5 453,-105.5 453,-75.5 250,-75.5"/>
<text text-anchor="start" x="257" y="-86.9" font-family="Arial" font-size="14.00" fill="#000000">created_at </text>
<text text-anchor="start" x="327.028" y="-86.9" font-family="Arial" font-size="14.00" fill="#666666">[timestamp]</text>
<polygon fill="none" stroke="#000000" points="250,-45.5 250,-75.5 453,-75.5 453,-45.5 250,-45.5"/>
<text text-anchor="start" x="257" y="-56.9" font-family="Arial" font-size="14.00" fill="#000000">updated_at </text>
<text text-anchor="start" x="330.9326" y="-56.9" font-family="Arial" font-size="14.00" fill="#666666">[timestamp]</text>
<polygon fill="none" stroke="#000000" stroke-width="3" points="248,-44.5 248,-262.5 454,-262.5 454,-44.5 248,-44.5"/>
</g>
<!-- ToDoLists -->
<g id="node2" class="node">
<title>ToDoLists</title>
<polygon fill="#efefef" stroke="transparent" points="241,-565.5 241,-600.5 463,-600.5 463,-565.5 241,-565.5"/>
<polygon fill="none" stroke="#000000" points="241,-565.5 241,-600.5 463,-600.5 463,-565.5 241,-565.5"/>
<text text-anchor="start" x="247.7133" y="-578.3" font-family="Arial Bold" font-size="18.00" fill="#000000">ToDoLists</text>
<text text-anchor="start" x="328.7187" y="-578.3" font-family="Arial" font-size="14.00" fill="#000000">    </text>
<text text-anchor="start" x="362.9235" y="-578.3" font-family="Arial" font-size="14.00" fill="#666666">[BASE TABLE]</text>
<polygon fill="none" stroke="#000000" points="241,-535.5 241,-565.5 463,-565.5 463,-535.5 241,-535.5"/>
<text text-anchor="start" x="248" y="-546.9" font-family="Arial" font-size="14.00" fill="#000000">id    </text>
<text text-anchor="start" x="293.094" y="-546.9" font-family="Arial" font-size="14.00" fill="#666666">[int]</text>
<polygon fill="none" stroke="#000000" points="241,-505.5 241,-535.5 463,-535.5 463,-505.5 241,-505.5"/>
<text text-anchor="start" x="248" y="-516.9" font-family="Arial" font-size="14.00" fill="#000000">user_id    </text>
<text text-anchor="start" x="328.1024" y="-516.9" font-family="Arial" font-size="14.00" fill="#666666">[int]</text>
<polygon fill="none" stroke="#000000" points="241,-475.5 241,-505.5 463,-505.5 463,-475.5 241,-475.5"/>
<text text-anchor="start" x="248" y="-486.9" font-family="Arial" font-size="14.00" fill="#000000">title    </text>
<text text-anchor="start" x="303.9818" y="-486.9" font-family="Arial" font-size="14.00" fill="#666666">[varchar(100)]</text>
<polygon fill="none" stroke="#000000" points="241,-445.5 241,-475.5 463,-475.5 463,-445.5 241,-445.5"/>
<text text-anchor="start" x="248" y="-456.9" font-family="Arial" font-size="14.00" fill="#000000">description    </text>
<text text-anchor="start" x="349.8822" y="-456.9" font-family="Arial" font-size="14.00" fill="#666666">[text]</text>
<polygon fill="none" stroke="#000000" points="241,-415.5 241,-445.5 463,-445.5 463,-415.5 241,-415.5"/>
<text text-anchor="start" x="248" y="-426.9" font-family="Arial" font-size="14.00" fill="#000000">created_at    </text>
<text text-anchor="start" x="348.3422" y="-426.9" font-family="Arial" font-size="14.00" fill="#666666">[timestamp]</text>
<polygon fill="none" stroke="#000000" points="241,-385.5 241,-415.5 463,-415.5 463,-385.5 241,-385.5"/>
<text text-anchor="start" x="248" y="-396.9" font-family="Arial" font-size="14.00" fill="#000000">updated_at    </text>
<text text-anchor="start" x="352.2468" y="-396.9" font-family="Arial" font-size="14.00" fill="#666666">[timestamp]</text>
</g>
<!-- ToDoLists&#45;&gt;Users -->
<g id="edge1" class="edge">
<title>ToDoLists:user_id&#45;&gt;Users:id</title>
<path fill="none" stroke="#000000" d="M231.0079,-519.8061C164.672,-510.0827 192.3868,-400.5642 241,-343 302.6632,-269.983 391.3368,-380.017 453,-307 480.6722,-274.2326 495.8889,-210.5 453,-210.5"/>
<polygon fill="#000000" stroke="#000000" points="231.024,-519.8071 240.6882,-524.9892 236.012,-520.1536 241,-520.5 241,-520.5 241,-520.5 236.012,-520.1536 241.3118,-516.0108 231.024,-519.8071 231.024,-519.8071"/>
<text text-anchor="start" x="7.115" y="-530.5" font-family="Arial" font-size="10.00" fill="#000000">FOREIGN KEY (user_id) REFERENCES Users (id)</text>
</g>
</g>
</svg>
